# AST/ASF file generated using VICON BodyLanguage
# -----------------------------------------------
:version 1.10
:name VICON
:units
  mass 1.0
  length 0.45
  angle deg
:documentation
   .ast/.asf automatically generated from VICON data using
   VICON BodyBuilder and BodyLanguage model FoxedUp or BRILLIANT.MOD
:root
   order TX TY TZ RX RY RZ
   axis XYZ
   position 0 0 0  
   orientation 0 0 0 
:bonedata
  begin
     id 1 
     name lhipjoint
     direction 0.573633 -0.743009 0.344793 
     length 2.46257 
     axis 0 0 0  XYZ
  end
  begin
     id 2 
     name lfemur
     direction 0.34202 -0.939693 0  
     length 7.3842  
     axis 0 0 20  XYZ
    dof rx ry rz
    limits (-160.0 20.0)
           (-70.0 70.0)
           (-60.0 70.0)
  end
  begin
     id 3 
     name ltibia
     direction 0.34202 -0.939693 0   
     length 7.50407   
     axis 0 0 20   XYZ
    dof rx
    limits (-10.0 170.0)
  end
  begin
     id 4 
     name lfoot
     direction 0.110749 -0.304281 0.946123   
     length 1.95925   
     axis -90 7.62852e-016 20   XYZ
    dof rx rz
    limits (-45.0 90.0)
           (-70.0 20.0)
  end
  begin
     id 5 
     name ltoes
     direction 1.53554e-011 -4.21843e-011 1   
     length 0.978318   
     axis -90 7.62852e-016 20   XYZ
    dof rx
    limits (-90.0 20.0)
  end
  begin
     id 6 
     name rhipjoint
     direction -0.488109 -0.791693 0.367385   
     length 2.31113  
     axis 0 0 0  XYZ 
  end
  begin
     id 7 
     name rfemur
     direction -0.34202 -0.939693 0   
     length 7.40965   
     axis 0 0 -20   XYZ
    dof rx ry rz
    limits (-160.0 20.0)
           (-70.0 70.0)
           (-70.0 60.0)
  end
  begin
     id 8 
     name rtibia
     direction -0.34202 -0.939693 0   
     length 7.55548   
     axis 0 0 -20   XYZ
    dof rx
    limits (-10.0 170.0)
 end
 begin
     id 9 
     name rfoot
     direction -0.127594 -0.350561 0.927808   
     length 2.07199  
     axis -90 -7.62852e-016 -20   XYZ
    dof rx rz
    limits (-45.0 90.0)
           (-20.0 70.0)
  end
  begin
     id 10 
     name rtoes
     direction -1.53542e-011 -4.21909e-011 1   
     length 1.02667   
     axis -90 -7.62852e-016 -20   XYZ
    dof rx
    limits (-90.0 20.0)
  end
  begin
     id 11 
     name lowerback
     direction -0.0103342 0.997298 -0.0727278   
     length 2.02836   
     axis 0 0 0   XYZ
    dof rx ry rz
    limits (-20.0 45.0)
           (-30.0 30.0)
           (-30.0 30.0)
  end
  begin
     id 12 
     name upperback
     direction 0.0171146 0.999786 -0.011606   
     length 2.03179   
     axis 0 0 0   XYZ
    dof rx ry rz
    limits (-20.0 45.0)
           (-30.0 30.0)
           (-30.0 30.0)
  end
  begin
     id 13 
     name thorax
     direction 0.0216927 0.999513 0.0224343   
     length 2.03882   
     axis 0 0 0   XYZ
    dof rx ry rz
    limits (-20.0 45.0)
           (-30.0 30.0)
           (-30.0 30.0)
  end
  begin
     id 14 
     name lowerneck
     direction 0.000989287 0.993907 0.110221   
     length 1.75428   
     axis 0 0 0   XYZ
    dof rx ry rz
    limits (-20.0 45.0)
           (-30.0 30.0)
           (-30.0 30.0)
  end
  begin
     id 15 
     name upperneck
     direction -0.0172474 0.994813 -0.100253   
     length 1.77058   
     axis 0 0 0   XYZ
    dof rx ry rz
    limits (-20.0 45.0)
           (-30.0 30.0)
           (-30.0 30.0)
  end
  begin
     id 16
     name head
     direction -0.00486455 0.99894 -0.0457663  
     length 1.77427  
     axis 0 0 0   XYZ
    dof rx ry rz
    limits (-20.0 45.0)
           (-30.0 30.0)
           (-30.0 30.0)
  end
  begin
     id 17 
     name lclavicle
     direction 0.927314 0.333734 -0.169441  
     length 3.97584  
     axis 0 0 0   XYZ
    dof ry rz
    limits (-20.0 10.0)
           (0.0 20.0)
  end
  begin
     id 18 
     name lhumerus
     direction 1 -4.48965e-011 -3.25313e-028   
     length 4.76468   
     axis 180 -30 -90   XYZ
    dof rx ry rz
    limits (-60.0 90.0)
           (-90.0 90.0)
           (-90.0 90.0)
  end
  begin
     id 19
     name lradius
     direction 1 -4.48969e-011 -2.8465e-028   
     length 3.52712   
     axis -180 -30 -90   XYZ
    dof rx
    limits (-10.0 170.0)
  end
  begin
     id 20
     name lwrist
     direction 1 -4.4896e-011 -7.78665e-028   
     length 1.76356   
     axis 1.91374e-015 90 90   XYZ
    dof ry
    limits (-180.0 0.0)
 end
  begin
     id 21 
     name lhand
     direction 1 -4.48959e-011 -1.55733e-027   
     length 0.859564   
     axis 9.9371e-016 90 90   XYZ
    dof rx rz
    limits (-90.0 90.0)
           (-45.0 45.0)
  end
  begin
     id 22 
     name lfingers
     direction 1 -4.48965e-011 -3.11466e-027   
     length 0.693002   
     axis 1.98742e-015 90 90   XYZ
    dof rx
    limits (0.0 90.0)
  end
  begin
     id 23
     name lthumb
     direction 0.707107 -6.34948e-011 0.707107   
     length 0.995017   
     axis -90 45 2.85299e-015   XYZ
    dof rx rz
    limits (-45.0 45.0)
           (-45.0 45.0)
  end
  begin
     id 24 
     name rclavicle
     direction -0.899388 0.348209 -0.264294   
     length 3.68366  
     axis 0 0 0   XYZ 
    dof ry rz
    limits (-10.0 20.0)
           (-20.0 0.0)
  end
  begin
     id 25 
     name rhumerus
     direction -1 -4.48965e-011 -3.01536e-027  
     length 4.90577   
     axis 180 30 90   XYZ
    dof rx ry rz
    limits (-90.0 60.0)
           (-90.0 90.0)
           (-90.0 90.0)
  end
  begin
     id 26 
     name rradius
     direction -1 -4.48966e-011 3.93291e-027   
     length 3.42692   
     axis -180 30 90   XYZ
    dof rx
    limits (-10.0 170.0)
  end
  begin
     id 27 
     name rwrist
     direction -1 -4.48969e-011 -7.78665e-028   
     length 1.71346   
     axis 1.91374e-015 -90 -90   XYZ
    dof ry
    limits (-180.0 0.0)
  end
  begin
     id 28
     name rhand
     direction -1 -4.48967e-011 -1.55733e-027   
     length 0.740957   
     axis 9.9371e-016 -90 -90   XYZ
    dof rx rz
    limits (-90.0 90.0)
           (-45.0 45.0)
  end
  begin
     id 29
     name rfingers
     direction -1 -4.48949e-011 -3.11466e-027   
     length 0.597378   
     axis 1.98742e-015 -90 -90   XYZ
    dof rx
    limits (0.0 90.0)
  end
  begin
     id 30
     name rthumb
     direction -0.707107 -6.34931e-011 0.707107   
     length 0.857719   
     axis -90 -45 -2.85299e-015   XYZ
    dof rx rz
    limits (-45.0 45.0)
           (-45.0 45.0)
  end
:hierarchy
  begin
    root lhipjoint rhipjoint lowerback
    lhipjoint lfemur
    lfemur ltibia
    ltibia lfoot
    lfoot ltoes
    rhipjoint rfemur
    rfemur rtibia
    rtibia rfoot
    rfoot rtoes
    lowerback upperback
    upperback thorax
    thorax lowerneck lclavicle rclavicle
    lowerneck upperneck
    upperneck head
    lclavicle lhumerus
    lhumerus lradius
    lradius lwrist
    lwrist lhand lthumb
    lhand lfingers
    rclavicle rhumerus
    rhumerus rradius
    rradius rwrist
    rwrist rhand rthumb
    rhand rfingers
  end

#!OML:ASF E:\I on waltz\AllaLogoMonkeySwing\Project 1\Capture day 1\Session 1\Subject1.ASF
:FULLY-SPECIFIED
:DEGREES
110
root -4.06625 17.2224 -17.0549 -2.15707 14.3242 -0.956
lowerback 9.76655 1.12968 0.8896
upperback 2.39211 1.63915 1.14261
thorax -2.9964 0.815239 0.483073
lowerneck -9.91819 -3.29201 -3.89958
upperneck 24.6812 -3.11431 -2.49525
head 9.44165 -2.03766 -0.535151
rclavicle 5.11871e-015 -5.96354e-015
rhumerus -21.0097 -21.0317 -83.8771
rradius 20.0441
rwrist 10.6424
rhand -7.01751 -36.5476
rfingers 7.12502
rthumb 18.854 -65.6539
lclavicle 5.11871e-015 -5.96354e-015
lhumerus -37.7985 31.6407 77.9099
lradius 37.4184
lwrist -2.25829
lhand -5.86147 -13.9135
lfingers 7.12502
lthumb 19.9655 15.0809
rfemur -8.42308 -1.32971 22.5954
rtibia 39.2799
rfoot -27.4595 -10.3239
rtoes 22.8341
lfemur -18.1389 -5.3021 -14.7849
ltibia 48.9617
lfoot -23.3628 6.01824
ltoes -24.8743
111
root -4.01132 17.225 -17.0419 -2.15564 13.4562 -0.848844
lowerback 9.71265 1.19309 0.745475
upperback 2.35443 1.70642 1.10283
thorax -3.00889 0.849023 0.51539
lowerneck -9.76243 -3.15926 -3.86121
upperneck 24.5216 -2.93878 -2.54627
head 9.35293 -1.95679 -0.534552
rclavicle 4.02539e-015 1.19271e-015
rhumerus -21.3201 -20.8371 -83.8334
rradius 19.9723
rwrist 10.6087
rhand -7.07673 -36.4885
rfingers 7.12502
rthumb 18.797 -65.6003
lclavicle 4.02539e-015 1.19271e-015
lhumerus -38.99 31.9928 76.6073
lradius 36.3202
lwrist -2.90416
lhand -5.61826 -13.976
lfingers 7.12502
lthumb 20.1993 14.9938
rfemur -8.31781 -0.89748 22.2803
rtibia 39.2171
rfoot -27.3924 -9.97822
rtoes 22.5096
lfemur -17.6009 -6.16206 -14.3834
ltibia 48.528
lfoot -23.3608 5.79664
ltoes -24.4503
112
root -3.95198 17.2237 -17.0299 -2.17426 12.581 -0.814552
lowerback 9.65337 1.24409 0.700387
upperback 2.33071 1.76716 1.06849
thorax -3.00128 0.879104 0.498872
lowerneck -9.48238 -3.13468 -3.8047
upperneck 24.1621 -2.90327 -2.71158
head 9.17016 -1.94844 -0.586382
rclavicle 1.19271e-015 8.15017e-015
rhumerus -21.6159 -20.671 -83.7343
rradius 19.9509
rwrist 10.6258
rhand -7.01664 -36.3731
rfingers 7.12502
rthumb 18.8548 -65.4793
lclavicle 1.19271e-015 8.15017e-015
lhumerus -40.0658 32.6346 75.1778
lradius 34.9292
lwrist -3.96659
lhand -5.34181 -13.9284
lfingers 7.12502
lthumb 20.465 15.0131
rfemur -8.22483 -0.499672 22.0364
rtibia 39.1924
rfoot -27.2708 -9.74614
rtoes 21.4554
lfemur -16.9829 -6.88663 -13.946
ltibia 47.9436
lfoot -23.2615 5.34315
ltoes -24.4885
113
root -3.88705 17.2188 -17.0148 -2.22175 11.7393 -0.863125
lowerback 9.56408 1.23205 0.703794
upperback 2.32379 1.75014 1.07963
thorax -2.95926 0.870523 0.512483
lowerneck -9.25538 -3.12476 -3.77544
upperneck 23.7593 -2.88378 -2.87644
head 8.98428 -1.94943 -0.635282
rclavicle -9.64106e-015 6.55989e-015
rhumerus -21.8867 -20.4854 -83.5992
rradius 19.9993
rwrist 10.705
rhand -6.70794 -36.5477
rfingers 7.12502
rthumb 19.1517 -65.6248
lclavicle -9.64106e-015 6.55989e-015
lhumerus -41.2402 33.7126 73.5204
lradius 33.3533
lwrist -5.70008
lhand -5.27922 -13.5991
lfingers 7.12502
lthumb 20.5251 15.3359
rfemur -8.10529 -0.124851 21.8597
rtibia 39.2002
rfoot -27.2585 -9.41027
rtoes 20.6315
lfemur -16.266 -7.48795 -13.4851
ltibia 47.2186
lfoot -22.9854 4.72635
ltoes -24.5625
114
root -3.81534 17.2147 -16.9952 -2.16086 10.9308 -0.906666
lowerback 9.35191 1.14684 0.716466
upperback 2.26647 1.63455 1.0568
thorax -2.8997 0.812835 0.499295
lowerneck -9.09729 -3.10712 -3.6448
upperneck 23.3668 -2.86097 -3.08382
head 8.81299 -1.94481 -0.716232
rclavicle 1.96548e-014 1.98785e-016
rhumerus -22.1748 -20.1589 -83.5454
rradius 20.0893
rwrist 10.637
rhand -6.54409 -36.6214
rfingers 7.12502
rthumb 19.3092 -65.6828
lclavicle 1.96548e-014 1.98785e-016
lhumerus -42.5856 35.0621 71.5338
lradius 31.5932
lwrist -7.53755
lhand -5.47067 -13.236
lfingers 7.12502
lthumb 20.3411 15.7187
rfemur -8.10059 0.232776 21.6465
rtibia 39.2358
rfoot -27.4226 -9.00471
rtoes 19.7754
lfemur -15.5703 -7.97838 -13.1207
ltibia 46.366
lfoot -22.559 4.23761
ltoes -25.5242
